<svg width="12" height="12" viewBox="0 0 12 12" fill="none" xmlns="http://www.w3.org/2000/svg">
<path d="M5.68692 11.375C3.09517 11.375 1.79375 11.375 0.897167 10.4778C6.95387e-08 9.58067 0 8.27983 0 5.6875C0 3.09517 6.95387e-08 1.79375 0.897167 0.897167C1.74533 0.0478334 3.00592 0.00408333 5.16133 0H5.1625C5.404 0 5.59942 0.195417 5.6 0.436917C5.6 0.678417 5.40517 0.875 5.16308 0.875C3.06833 0.879083 2.09008 0.940917 1.51608 1.5155C0.875 2.15658 0.875 3.33667 0.875 5.6875C0.875 8.03833 0.875 9.21842 1.5155 9.8595C2.156 10.5 3.33608 10.5 5.68692 10.5C8.03775 10.5 9.21725 10.5 9.85833 9.8595C10.4329 9.28492 10.4942 8.30667 10.4982 6.21192C10.4982 5.97042 10.6942 5.775 10.9357 5.775H10.9369C11.1784 5.775 11.3738 5.97158 11.3738 6.21308C11.3697 8.36792 11.326 9.6285 10.4778 10.4778C9.58067 11.375 8.27983 11.375 5.6875 11.375H5.68692ZM4.82417 6.615C4.65267 6.44467 4.65208 6.16758 4.82242 5.99608L9.83208 0.957833C9.47975 0.922833 8.92092 0.896 8.04533 0.90825H8.03892C7.80033 0.90825 7.60492 0.716333 7.60142 0.477167C7.59792 0.235667 7.791 0.03675 8.0325 0.03325C10.5677 -0.00291671 10.8412 0.270667 10.9882 0.417667C11.1347 0.564667 11.4077 0.838833 11.3715 3.37575C11.368 3.61725 11.1702 3.81267 10.9276 3.80683C10.6861 3.80333 10.493 3.605 10.4965 3.36292C10.5087 2.49083 10.4819 1.93258 10.4475 1.57908L5.44308 6.61267C5.35733 6.69842 5.24533 6.74158 5.13275 6.74158C5.02133 6.74158 4.90992 6.69958 4.82417 6.615Z" fill="#FF4405"/>
</svg>
